<svg xmlns="http://www.w3.org/2000/svg" width="128" height="128" viewBox="0 0 128 128"><rect width="100%" height="100%" fill="#000000"/><path fill="#FFF" d="M27.38 63.21h1q.37 0 .65-.09.27-.09.46-.26.18-.18.27-.42.09-.25.09-.55 0-.29-.09-.53-.09-.24-.27-.4-.18-.17-.46-.25-.27-.09-.65-.09h-1v2.59Zm-1.35-3.63h2.35q.73 0 1.26.17t.87.48q.35.3.52.72.16.43.16.94 0 .52-.17.96-.18.44-.53.75-.35.31-.87.49-.53.18-1.24.18h-1v2.54h-1.35v-7.23Zm7.09 2.41.07.58q.24-.46.57-.72.33-.27.78-.27.36 0 .57.16l-.08.92q-.02.1-.07.13-.05.04-.13.04-.07 0-.22-.02-.15-.03-.29-.03-.2 0-.36.06-.16.06-.29.17-.13.11-.22.28-.1.15-.19.36v3.16h-1.23v-5.13h.72q.19 0 .27.07.07.06.1.24Zm4.91-.39q.57 0 1.04.18.46.19.8.53.33.34.51.83.18.49.18 1.09 0 .61-.18 1.1-.18.5-.51.84-.34.35-.8.53-.47.18-1.04.18-.58 0-1.05-.18-.47-.18-.8-.53-.33-.34-.51-.84-.19-.49-.19-1.1 0-.6.19-1.09.18-.49.51-.83.33-.34.8-.53.47-.18 1.05-.18Zm0 4.33q.64 0 .95-.42.3-.44.3-1.26 0-.84-.3-1.27-.31-.43-.95-.43-.65 0-.96.43-.32.44-.32 1.27 0 .82.32 1.25.31.43.96.43Zm3.51-4.25h1.24v5.31q0 .33-.08.63-.09.29-.28.51-.2.22-.51.35-.31.13-.76.13-.18 0-.33-.02-.15-.02-.31-.07l.05-.67q.01-.1.08-.13.06-.02.25-.02.18 0 .31-.04t.2-.12q.08-.08.11-.22.03-.13.03-.33v-5.31Zm1.41-1.5q0 .17-.06.3-.07.14-.17.25-.11.1-.26.17-.15.06-.31.06t-.3-.06q-.14-.07-.25-.17-.1-.11-.16-.25-.07-.13-.07-.3 0-.16.07-.31.06-.14.16-.25.11-.1.25-.16.14-.07.3-.07.16 0 .31.07.15.06.26.16.1.11.17.25.06.15.06.31Zm2.07 3.47h2.33q0-.24-.07-.45-.07-.21-.2-.37-.14-.16-.34-.25-.21-.1-.49-.1-.53 0-.84.31-.31.31-.39.86Zm3.15.75h-3.18q.03.39.14.68.11.29.29.48t.43.28q.25.09.55.09.3 0 .52-.07.21-.07.38-.15.16-.09.28-.16.12-.07.24-.07.15 0 .23.11l.35.45q-.2.24-.46.41-.25.16-.53.26-.28.09-.56.14-.29.03-.56.03-.54 0-1-.17-.46-.18-.8-.53-.34-.34-.53-.86-.2-.51-.2-1.19 0-.52.17-.98.17-.47.49-.81.32-.34.78-.54.45-.2 1.03-.2.48 0 .89.16.41.15.71.45.29.3.46.73.17.43.17.98 0 .29-.06.38-.06.1-.23.1Zm5.21-2.09-.32.46q-.06.06-.11.1-.05.04-.15.04-.1 0-.19-.05-.09-.06-.21-.13-.13-.08-.3-.13-.17-.06-.43-.06-.32 0-.57.12-.24.11-.4.34-.17.21-.25.53-.08.31-.08.7 0 .41.09.74.09.31.25.53.17.22.4.33.24.12.53.12.3 0 .48-.08.18-.07.31-.16.12-.09.22-.16.09-.07.2-.07.15 0 .23.11l.35.45q-.2.24-.44.41-.24.16-.5.26-.26.09-.53.14-.27.03-.54.03-.48 0-.9-.17-.42-.18-.73-.52-.32-.34-.5-.83-.18-.5-.18-1.13 0-.56.16-1.04.16-.49.48-.84.31-.35.78-.55.46-.2 1.07-.2.57 0 1.01.18.43.19.77.53Zm2.53 4.58q-.67 0-1.02-.38-.36-.38-.36-1.04V62.6H54q-.1 0-.17-.06t-.07-.19v-.5l.83-.13.26-1.4q.02-.1.09-.16.07-.05.18-.05h.64v1.62h1.37v.87h-1.37v2.78q0 .24.12.38.12.13.32.13.12 0 .2-.02.07-.03.13-.06t.1-.06q.05-.02.09-.02.06 0 .09.02.04.03.08.09l.37.59q-.27.23-.62.34-.35.12-.73.12Zm8.82-6.63-.33.63q-.06.11-.13.16t-.17.05q-.1 0-.22-.08-.13-.08-.3-.17-.17-.1-.39-.18-.23-.07-.54-.07-.28 0-.49.06-.21.07-.35.19-.15.12-.22.29-.07.17-.07.37 0 .25.15.42.14.17.37.29.24.12.54.21.3.1.61.21.32.1.62.25.3.14.53.36.24.21.38.53.14.32.14.76 0 .49-.16.92-.17.43-.49.75-.33.31-.79.5-.47.18-1.07.18-.34 0-.68-.07-.33-.07-.64-.19t-.58-.3q-.27-.18-.48-.39l.4-.65q.05-.06.13-.11t.17-.05q.12 0 .27.1.14.1.34.23.2.12.47.23.27.1.64.1.58 0 .89-.27.32-.27.32-.79 0-.28-.14-.46-.15-.18-.38-.3-.24-.12-.54-.21-.3-.09-.61-.18-.31-.1-.61-.25-.3-.14-.53-.36-.24-.23-.38-.56-.14-.34-.14-.84 0-.39.16-.76.15-.38.45-.67.3-.29.74-.46.44-.18 1.01-.18.64 0 1.18.2.54.2.92.56Zm2.34 2.92v2.3q.21.26.46.36.25.11.54.11.28 0 .5-.11.23-.1.39-.32.15-.22.24-.54.08-.33.08-.77 0-.46-.07-.77t-.21-.51q-.13-.19-.32-.28-.2-.09-.44-.09-.39 0-.66.16t-.51.46Zm-.16-1.28.1.48q.31-.36.71-.57.4-.23.94-.23.42 0 .77.18.35.17.6.51.25.33.39.82.14.49.14 1.12 0 .57-.16 1.06-.15.49-.44.85-.29.36-.69.56-.41.2-.92.2-.43 0-.73-.13-.31-.13-.55-.36v2.1h-1.23v-6.81h.75q.24 0 .32.22Zm5.58 1.75h2.33q0-.24-.06-.45-.07-.21-.21-.37-.13-.16-.34-.25-.21-.1-.48-.1-.54 0-.84.31-.31.31-.4.86Zm3.15.75h-3.17q.03.39.14.68.11.29.29.48t.43.28q.24.09.54.09.3 0 .52-.07.22-.07.38-.15.16-.09.29-.16.12-.07.23-.07.16 0 .23.11l.36.45q-.21.24-.46.41-.26.16-.53.26-.28.09-.57.14-.29.03-.56.03-.53 0-.99-.17-.46-.18-.8-.53-.34-.34-.54-.86-.19-.51-.19-1.19 0-.52.17-.98.17-.47.49-.81.31-.34.77-.54t1.03-.2q.49 0 .9.16.41.15.7.45.3.3.47.73.16.43.16.98 0 .29-.06.38-.06.1-.23.1Zm5.22-2.09-.33.46q-.05.06-.1.1-.06.04-.16.04-.09 0-.18-.05-.09-.06-.22-.13-.12-.08-.29-.13-.18-.06-.43-.06-.33 0-.57.12-.25.11-.41.34-.16.21-.24.53-.08.31-.08.7 0 .41.09.74.08.31.25.53.16.22.4.33.23.12.53.12.29 0 .48-.08.18-.07.3-.16.13-.09.22-.16t.21-.07q.15 0 .22.11l.36.45q-.21.24-.45.41-.24.16-.49.26-.26.09-.53.14-.28.03-.55.03-.47 0-.89-.17-.42-.18-.74-.52-.31-.34-.49-.83-.19-.5-.19-1.13 0-.56.17-1.04.16-.49.47-.84.32-.35.78-.55.47-.2 1.07-.2.58 0 1.01.18.43.19.78.53Zm2.53 4.58q-.67 0-1.03-.38T82 65.47V62.6h-.52q-.1 0-.17-.06t-.07-.19v-.5l.82-.13.26-1.4q.03-.1.1-.16.07-.05.18-.05h.64v1.62h1.37v.87h-1.37v2.78q0 .24.12.38.11.13.32.13.11 0 .19-.02.08-.03.14-.06l.1-.06q.04-.02.09-.02.05 0 .09.02.03.03.07.09l.37.59q-.27.23-.62.34-.35.12-.72.12Zm3.1-4.9.07.58q.24-.46.57-.72.33-.27.78-.27.36 0 .57.16l-.08.92q-.02.1-.07.13-.05.04-.13.04-.07 0-.22-.02-.15-.03-.29-.03-.2 0-.36.06-.16.06-.29.17-.13.11-.22.28-.1.15-.19.36v3.16H85.4v-5.13h.72q.19 0 .27.07.07.06.1.24Zm5.82-.31h1.24v5.13h-.76q-.24 0-.31-.23l-.08-.41q-.32.32-.7.52-.38.2-.89.2-.42 0-.74-.14-.33-.15-.55-.41-.22-.25-.33-.61-.11-.36-.11-.79v-3.26h1.23v3.26q0 .47.22.73.22.25.65.25.32 0 .6-.14.28-.14.53-.39v-3.71ZM96 66.81h-1.23v-5.13h.75q.24 0 .32.22l.08.38q.13-.14.28-.27.15-.12.32-.21.16-.1.36-.15.19-.05.42-.05.48 0 .8.26.31.26.46.7.12-.25.3-.44.18-.18.4-.3.21-.11.46-.17.24-.05.48-.05.43 0 .76.13t.55.38q.23.25.35.61.11.36.11.82v3.27h-1.23v-3.27q0-.48-.22-.73-.21-.25-.63-.25-.19 0-.35.06-.16.07-.28.19-.13.12-.2.31t-.07.42v3.27h-1.24v-3.27q0-.51-.2-.74-.21-.24-.61-.24-.27 0-.5.13-.24.14-.44.37v3.75Z"/></svg>