<svg xmlns="http://www.w3.org/2000/svg" width="128" height="128" viewBox="0 0 128 128"><rect width="100%" height="100%" fill="#000000"/><path fill="#FFF" d="M27.71 63.965h1.81q.67 0 1.16-.17.5-.16.83-.47.33-.32.49-.76.16-.45.16-1 0-.52-.16-.94-.16-.42-.49-.72-.32-.3-.82-.45-.49-.16-1.17-.16h-1.81v4.67Zm-2.42-6.54h4.23q1.31 0 2.26.3.96.31 1.58.86.62.55.92 1.31.3.77.3 1.67 0 .95-.31 1.74-.32.78-.95 1.35-.63.57-1.58.88-.95.32-2.22.32h-1.81v4.58h-2.42v-13.01Zm15.67 10.62v-1.55q-.96.04-1.62.16-.66.13-1.05.31-.4.19-.57.45-.17.25-.17.54 0 .59.35.84.34.25.9.25.69 0 1.18-.24.5-.25.98-.76Zm-4.7-4.85-.39-.71q1.59-1.46 3.83-1.46.81 0 1.45.27.64.27 1.08.74.44.47.67 1.13.23.65.23 1.44v5.83h-1.01q-.31 0-.48-.09-.17-.1-.27-.39l-.2-.66q-.35.31-.69.55-.33.24-.69.4-.36.16-.77.25-.41.08-.9.08-.59 0-1.08-.15-.5-.16-.86-.48-.36-.31-.56-.78-.19-.47-.19-1.09 0-.35.11-.7.12-.34.39-.66.26-.31.68-.59.43-.28 1.04-.49.62-.2 1.44-.33.82-.14 1.87-.16v-.54q0-.93-.39-1.37-.4-.45-1.15-.45-.54 0-.89.13-.36.12-.63.28-.27.16-.49.28-.22.13-.49.13-.23 0-.4-.12-.16-.12-.26-.29Zm20.45-1.99h1.69l-2.93 9.23h-1.78q-.31 0-.43-.4l-1.65-5.33q-.08-.27-.15-.54-.07-.26-.11-.53l-.12.54q-.07.27-.15.54l-1.69 5.32q-.1.4-.47.4h-1.71l-2.93-9.23h1.78q.24 0 .41.11.17.12.22.3l1.33 4.93q.1.41.17.79.08.39.13.78.1-.39.21-.78.12-.38.24-.79l1.53-4.95q.06-.18.21-.3.16-.11.39-.11h.98q.23 0 .4.11.17.12.22.3l1.48 4.95q.12.41.22.8.11.39.21.78.11-.77.33-1.58l1.36-4.93q.06-.18.22-.3.17-.11.39-.11Zm9.09.99-.5.81q-.09.14-.19.2t-.25.06q-.17 0-.35-.09-.18-.09-.43-.21-.24-.11-.55-.2-.31-.09-.73-.09-.66 0-1.04.28-.37.28-.37.73 0 .3.19.5.2.2.52.35.32.16.72.28.41.12.83.26.41.15.82.33.4.19.72.47.32.28.52.68.19.4.19.95 0 .67-.24 1.23-.24.57-.7.98-.47.4-1.16.63-.69.23-1.59.23-.48 0-.93-.08-.46-.09-.87-.24-.42-.15-.78-.36-.35-.21-.62-.45l.51-.85q.1-.15.23-.23.14-.08.35-.08.2 0 .39.12.18.11.42.25.25.13.58.25.32.12.83.12.39 0 .68-.1.28-.09.47-.25.18-.15.27-.35.08-.2.08-.42 0-.32-.19-.53-.2-.21-.52-.36-.31-.15-.72-.27-.41-.13-.84-.27t-.84-.34q-.41-.19-.73-.49t-.51-.73q-.19-.43-.19-1.04 0-.57.22-1.08.23-.51.66-.9.44-.38 1.09-.61.65-.23 1.51-.23.95 0 1.74.32.78.31 1.3.82Zm4.85 8.38q-1.2 0-1.85-.68-.64-.68-.64-1.87v-5.16h-.95q-.18 0-.3-.12-.13-.11-.13-.35v-.88l1.49-.24.47-2.52q.04-.18.17-.28.12-.1.32-.1h1.15v2.91h2.47v1.58h-2.47v5q0 .44.21.68.22.24.58.24.21 0 .35-.05.14-.05.24-.1.11-.05.19-.1t.16-.05q.1 0 .16.05.07.05.14.14l.66 1.08q-.48.41-1.11.62-.63.2-1.31.2Zm7.71-9.52q1.02 0 1.86.33.85.34 1.44.95.6.61.93 1.49.32.89.32 1.97 0 1.1-.32 1.98-.33.89-.93 1.51-.59.62-1.44.95-.84.34-1.86.34-1.04 0-1.88-.34-.85-.33-1.45-.95-.6-.62-.93-1.51-.32-.88-.32-1.98 0-1.08.32-1.97.33-.88.93-1.49.6-.61 1.45-.95.84-.33 1.88-.33Zm0 7.8q1.15 0 1.7-.77.56-.77.56-2.27 0-1.49-.56-2.27-.55-.79-1.7-.79-1.17 0-1.74.79-.56.79-.56 2.27 0 1.49.56 2.27.57.77 1.74.77Zm8.18-7.25.15.73q.28-.28.59-.52.31-.24.66-.4.34-.17.74-.26.4-.1.86-.1.76 0 1.34.26.59.25.98.72.39.46.59 1.11.21.64.21 1.41v5.88h-2.23v-5.88q0-.84-.38-1.31-.39-.46-1.18-.46-.58 0-1.08.26-.51.26-.96.71v6.68h-2.22v-9.23h1.36q.43 0 .57.4Zm9.98 3.15h4.19q0-.43-.12-.81-.12-.39-.36-.67-.25-.29-.62-.46-.37-.17-.87-.17-.96 0-1.52.55-.55.55-.7 1.56Zm5.67 1.34h-5.72q.06.71.26 1.23.19.52.52.86.32.33.77.5.44.17.98.17t.93-.13q.4-.13.69-.28.29-.15.51-.28.22-.12.43-.12.28 0 .41.2l.64.81q-.37.43-.83.73-.46.29-.96.47-.49.17-1.01.24-.52.08-1.01.08-.96 0-1.79-.32-.82-.32-1.44-.95-.61-.63-.96-1.55t-.35-2.14q0-.94.31-1.77.3-.84.87-1.45.57-.62 1.4-.98.82-.36 1.86-.36.87 0 1.61.28.74.28 1.27.82.53.53.83 1.31.3.78.3 1.78 0 .5-.11.68-.11.17-.41.17Z"/></svg>