<svg xmlns="http://www.w3.org/2000/svg" width="128" height="128" viewBox="0 0 128 128"><rect width="100%" height="100%" fill="#000000"/><path fill="#FFF" d="M36.75 58.695h1.26l-2.69 8.68h-1.46l-1.89-5.93q-.08-.21-.15-.53-.03.15-.07.29-.04.13-.08.24l-1.91 5.93h-1.47l-2.68-8.68h1.35q.21 0 .35.1.14.1.19.27l1.47 5.19q.05.19.1.42.04.22.09.47.05-.25.1-.48.06-.22.13-.41l1.7-5.19q.05-.14.19-.25.14-.12.34-.12h.48q.21 0 .34.11.13.1.2.26l1.7 5.19q.12.37.23.86.07-.48.17-.86l1.47-5.19q.04-.15.19-.26.14-.11.35-.11Zm2.15 2.52h1.49v6.16H38.9v-6.16Zm1.69-1.79q0 .19-.08.36-.08.17-.21.29-.12.13-.3.21-.17.07-.37.07-.19 0-.36-.07-.17-.08-.3-.21-.13-.12-.2-.29-.08-.17-.08-.36 0-.2.08-.37.07-.18.2-.3.13-.13.3-.2.17-.08.36-.08.2 0 .37.08.18.07.3.2.13.12.21.3.08.17.08.37Zm1.33-.97h1.48v8.92h-1.48v-8.92Zm6.82 7.1v-2.76q-.25-.31-.55-.44-.29-.12-.63-.12t-.61.12q-.27.13-.46.39-.19.25-.3.64-.1.4-.1.93 0 .54.09.91.09.38.25.62.16.23.39.34.24.1.53.1.46 0 .78-.19.33-.19.61-.54Zm0-7.1h1.49v8.92h-.91q-.29 0-.37-.27l-.13-.59q-.37.42-.85.69-.49.26-1.13.26-.5 0-.92-.21-.42-.21-.73-.61-.3-.4-.46-.99-.17-.58-.17-1.34 0-.68.19-1.27.18-.59.53-1.02.35-.43.84-.68.48-.24 1.09-.24.51 0 .88.16t.65.44v-3.25Zm14.29.24h1.22v8.68h-1.42v-5.6q0-.34.03-.73l-2.62 4.93q-.19.35-.57.35h-.23q-.38 0-.57-.35l-2.65-4.95q.02.2.03.39.01.19.01.36v5.6h-1.42v-8.68h1.22q.11 0 .18.01.08.01.14.03.07.02.12.08.05.05.1.14l2.6 4.82q.1.19.18.4.09.2.18.42.08-.23.17-.43.09-.21.19-.4l2.56-4.81q.05-.09.11-.14.05-.06.11-.08.07-.02.14-.03.08-.01.19-.01Zm2.96 2.52h1.49v6.16h-1.49v-6.16Zm1.7-1.79q0 .19-.08.36-.08.17-.21.29-.13.13-.3.21-.18.07-.37.07-.2 0-.37-.07-.17-.08-.29-.21-.13-.12-.21-.29-.07-.17-.07-.36 0-.2.07-.37.08-.18.21-.3.12-.13.29-.2.17-.08.37-.08.19 0 .37.08.17.07.3.2.13.12.21.3.08.17.08.37Zm5.17 6.13v-2.76q-.25-.31-.55-.44-.3-.12-.64-.12t-.61.12q-.27.13-.46.39-.19.25-.29.64-.1.4-.1.93 0 .54.08.91.09.38.25.62.16.23.4.34.23.1.52.1.46 0 .79-.19.32-.19.61-.54Zm0-7.1h1.48v8.92h-.91q-.29 0-.37-.27l-.12-.59q-.38.42-.86.69-.48.26-1.12.26-.51 0-.93-.21-.42-.21-.72-.61t-.47-.99q-.16-.58-.16-1.34 0-.68.18-1.27.19-.59.54-1.02.34-.43.83-.68.49-.24 1.09-.24.52 0 .88.16.37.16.66.44v-3.25Zm4.23 3.03.1.49q.19-.19.39-.35.21-.15.44-.27.23-.11.5-.17.26-.06.57-.06.51 0 .9.17t.65.48q.26.31.39.74.14.43.14.94v3.92h-1.48v-3.92q0-.56-.26-.87-.26-.31-.79-.31-.38 0-.72.17-.33.18-.63.48v4.45H75.8v-6.16h.91q.29 0 .38.27Zm5.53-.27h1.49v6.16h-1.49v-6.16Zm1.69-1.79q0 .19-.08.36-.07.17-.2.29-.13.13-.31.21-.17.07-.37.07-.19 0-.36-.07-.17-.08-.3-.21-.12-.12-.2-.29-.07-.17-.07-.36 0-.2.07-.37.08-.18.2-.3.13-.13.3-.2.17-.08.36-.08.2 0 .37.08.18.07.31.2.13.12.2.3.08.17.08.37Zm3.56 4.72q.28 0 .48-.07.2-.08.34-.21.13-.13.2-.32.07-.18.07-.41 0-.45-.27-.72-.27-.27-.82-.27-.55 0-.82.27-.27.27-.27.72 0 .22.07.41.07.18.2.32.14.13.34.21.21.07.48.07Zm1.67 3.51q0-.18-.1-.3-.11-.11-.3-.18-.18-.06-.43-.09t-.53-.04q-.28-.02-.58-.03-.29-.01-.58-.05-.24.14-.4.33-.15.18-.15.43 0 .16.08.3.08.14.26.24.18.11.46.16.28.06.69.06.41 0 .71-.06.3-.07.5-.18.19-.11.28-.26.09-.15.09-.33Zm-.29-6.23h1.77v.56q0 .26-.32.32l-.55.1q.13.32.13.7 0 .45-.19.82-.18.37-.5.63-.33.26-.77.4t-.95.14q-.18 0-.35-.02-.17-.02-.33-.05-.29.18-.29.39 0 .19.17.28.18.08.46.12.28.04.64.04.36.01.74.04t.74.11q.36.07.64.24.28.16.45.44.17.28.17.71 0 .41-.2.8-.2.38-.58.68-.38.3-.94.48-.55.19-1.26.19-.7 0-1.21-.14-.52-.13-.86-.36-.34-.22-.51-.52-.17-.29-.17-.61 0-.43.26-.72t.72-.47q-.25-.12-.39-.33-.14-.21-.14-.56 0-.13.05-.28.05-.15.15-.29.1-.15.25-.28.15-.12.35-.23-.47-.25-.74-.67-.26-.42-.26-.98 0-.46.18-.83.18-.37.51-.63t.77-.4q.45-.13.98-.13.4 0 .74.08.35.08.64.23Zm4.19-2.97v3.42q.36-.33.79-.54.43-.21 1.01-.21.51 0 .9.17t.65.48q.26.31.39.74.14.43.14.94v3.92h-1.48v-3.92q0-.56-.26-.87-.26-.31-.79-.31-.38 0-.72.17-.33.18-.63.48v4.45h-1.48v-8.92h1.48Zm7.34 9.02q-.81 0-1.24-.46-.43-.45-.43-1.25v-3.44h-.63q-.12 0-.2-.07-.08-.08-.08-.24v-.59l.99-.16.31-1.68q.03-.12.11-.18.09-.07.22-.07h.77v1.94h1.64v1.05h-1.64v3.34q0 .29.14.45.14.16.38.16.14 0 .23-.03.1-.03.17-.07l.12-.07q.05-.03.11-.03t.11.03q.04.03.09.1l.44.72q-.32.27-.74.41-.42.14-.87.14Z"/></svg>